<svg width="24" height="24" fill="none" xmlns="http://www.w3.org/2000/svg"><g filter="url(#filter0_dii)" clip-path="url(#clip0)"><path d="M10.535 17.387l5.684.855-.621 2.555-1.77-.235c-2.601-.359-4.555-.714-5.86-1.066L7.817 5.984c2.758-.703 5.383-1.175 7.875-1.418l.41 2.79L10.489 8l.117 3.504 5.04-.211-.188 2.754-4.828-.164-.094 3.504z" fill="url(#paint0_linear)"/><path d="M10.535 17.387l-.2-.006-.005.177.175.026.03-.197zm5.684.855l.194.047.052-.212-.216-.033-.03.198zm-.621 2.555l-.027.198.178.024.043-.175-.194-.047zm-1.77-.235l-.027.199.027-.198zm-5.86-1.066l-.2.002.002.152.147.04.052-.194zM7.817 5.984l-.049-.193-.152.038.001.158.2-.003zm7.875-1.418l.198-.029-.027-.188-.19.018.02.2zm.41 2.79l.023.198.206-.023-.03-.205-.198.03zM10.489 8l-.022-.199-.184.021.006.185.2-.007zm.117 3.504l-.2.007.007.201.202-.008-.009-.2zm5.04-.211l.2.014.014-.223-.223.01.009.199zm-.188 2.754l-.007.2.193.006.014-.193-.2-.013zm-4.828-.164l.007-.2-.202-.007-.005.201.2.006zm-.124 3.701l5.684.856.06-.396-5.684-.855-.06.395zm5.52.61l-.622 2.556.389.094.621-2.555-.389-.094zm-.401 2.405l-1.77-.235-.052.397 1.77.234.052-.396zm-1.769-.235c-2.599-.359-4.542-.713-5.834-1.061l-.104.386c1.317.355 3.28.712 5.884 1.072l.054-.397zm-5.686-.87L8.016 5.982l-.4.005.153 13.511.4-.004zM7.866 6.178c2.75-.7 5.364-1.171 7.845-1.413l-.039-.398c-2.504.244-5.139.718-7.905 1.424l.099.387zm7.627-1.582l.41 2.789.396-.059-.41-2.789-.396.059zm.586 2.56l-5.614.645.046.398 5.613-.645-.045-.397zm-5.79.85l.117 3.505.4-.014-.118-3.504-.4.014zm.325 3.698l5.039-.211-.017-.4-5.039.211.017.4zm4.831-.425l-.188 2.754.4.027.187-2.753-.399-.028zm.019 2.568l-4.828-.164-.014.4 4.828.164.014-.4zm-5.035.03l-.094 3.504.4.011.094-3.504-.4-.01z" fill="#000"/><path d="M10.535 17.387l-.2-.006-.005.177.175.026.03-.197zm5.684.855l.194.047.052-.212-.216-.033-.03.198zm-.621 2.555l-.027.198.178.024.043-.175-.194-.047zm-1.77-.235l-.027.199.027-.198zm-5.86-1.066l-.2.002.002.152.147.04.052-.194zM7.817 5.984l-.049-.193-.152.038.001.158.2-.003zm7.875-1.418l.198-.029-.027-.188-.19.018.02.2zm.41 2.79l.023.198.206-.023-.03-.205-.198.03zM10.489 8l-.022-.199-.184.021.006.185.2-.007zm.117 3.504l-.2.007.007.201.202-.008-.009-.2zm5.04-.211l.2.014.014-.223-.223.01.009.199zm-.188 2.754l-.007.2.193.006.014-.193-.2-.013zm-4.828-.164l.007-.2-.202-.007-.005.201.2.006zm-.124 3.701l5.684.856.06-.396-5.684-.855-.06.395zm5.52.61l-.622 2.556.389.094.621-2.555-.389-.094zm-.401 2.405l-1.77-.235-.052.397 1.77.234.052-.396zm-1.769-.235c-2.599-.359-4.542-.713-5.834-1.061l-.104.386c1.317.355 3.28.712 5.884 1.072l.054-.397zm-5.686-.87L8.016 5.982l-.4.005.153 13.511.4-.004zM7.866 6.178c2.75-.7 5.364-1.171 7.845-1.413l-.039-.398c-2.504.244-5.139.718-7.905 1.424l.099.387zm7.627-1.582l.41 2.789.396-.059-.41-2.789-.396.059zm.586 2.56l-5.614.645.046.398 5.613-.645-.045-.397zm-5.79.85l.117 3.505.4-.014-.118-3.504-.4.014zm.325 3.698l5.039-.211-.017-.4-5.039.211.017.4zm4.831-.425l-.188 2.754.4.027.187-2.753-.399-.028zm.019 2.568l-4.828-.164-.014.4 4.828.164.014-.4zm-5.035.03l-.094 3.504.4.011.094-3.504-.4-.01z" fill="url(#paint1_linear)"/></g><defs><linearGradient id="paint0_linear" x1="8.348" y1="5.123" x2="14.589" y2="21.763" gradientUnits="userSpaceOnUse"><stop stop-color="#FFF9F9"/><stop offset="1" stop-opacity=".6"/></linearGradient><linearGradient id="paint1_linear" x1="12" y1="-2" x2="12" y2="27" gradientUnits="userSpaceOnUse"><stop stop-color="#fff"/><stop offset="1" stop-color="#fff" stop-opacity="0"/></linearGradient><clipPath id="clip0"><path fill="#fff" d="M0 0h24v24H0z"/></clipPath><filter id="filter0_dii" x="3.615" y="4.349" width="16.85" height="24.67" filterUnits="userSpaceOnUse" color-interpolation-filters="sRGB"><feFlood flood-opacity="0" result="BackgroundImageFix"/><feColorMatrix in="SourceAlpha" values="0 0 0 0 0 0 0 0 0 0 0 0 0 0 0 0 0 0 127 0"/><feOffset dy="4"/><feGaussianBlur stdDeviation="2"/><feColorMatrix values="0 0 0 0 0.117647 0 0 0 0 0.682353 0 0 0 0 0.929412 0 0 0 0.25 0"/><feBlend in2="BackgroundImageFix" result="effect1_dropShadow"/><feBlend in="SourceGraphic" in2="effect1_dropShadow" result="shape"/><feColorMatrix in="SourceAlpha" values="0 0 0 0 0 0 0 0 0 0 0 0 0 0 0 0 0 0 127 0" result="hardAlpha"/><feOffset dy="4"/><feGaussianBlur stdDeviation="2"/><feComposite in2="hardAlpha" operator="arithmetic" k2="-1" k3="1"/><feColorMatrix values="0 0 0 0 0.117647 0 0 0 0 0.682353 0 0 0 0 0.929412 0 0 0 0.25 0"/><feBlend in2="shape" result="effect2_innerShadow"/><feColorMatrix in="SourceAlpha" values="0 0 0 0 0 0 0 0 0 0 0 0 0 0 0 0 0 0 127 0" result="hardAlpha"/><feOffset dy="10"/><feGaussianBlur stdDeviation="2"/><feComposite in2="hardAlpha" operator="arithmetic" k2="-1" k3="1"/><feColorMatrix values="0 0 0 0 0.065625 0 0 0 0 0.567799 0 0 0 0 0.7875 0 0 0 0.83 0"/><feBlend in2="effect2_innerShadow" result="effect3_innerShadow"/></filter></defs></svg>